<?xml version="1.0" encoding="utf-8"?>
<!-- Generator: Adobe Illustrator 16.0.0, SVG Export Plug-In . SVG Version: 6.00 Build 0)  -->
<!DOCTYPE svg PUBLIC "-//W3C//DTD SVG 1.1//EN" "http://www.w3.org/Graphics/SVG/1.1/DTD/svg11.dtd">
<svg version="1.1" id="Layer_1" xmlns="http://www.w3.org/2000/svg" xmlns:xlink="http://www.w3.org/1999/xlink" x="0px" y="0px"
	 width="792px" height="792px" viewBox="0 0 792 792" enable-background="new 0 0 792 792" xml:space="preserve">
<g>
	<g>
		<path fill="#FEDE63" d="M710.528,396c0,173.705-140.823,314.528-314.528,314.528C222.295,710.528,81.472,569.705,81.472,396
			C81.472,222.295,222.295,81.472,396,81.472C569.705,81.472,710.528,222.295,710.528,396z"/>
		<path fill="#F68D65" d="M396,728.028c-88.686,0-172.065-34.537-234.778-97.25S63.972,484.686,63.972,396
			s34.538-172.065,97.25-234.778S307.314,63.972,396,63.972s172.065,34.538,234.778,97.25s97.25,146.092,97.25,234.778
			c0,88.686-34.537,172.065-97.25,234.778S484.686,728.028,396,728.028z M396,98.972C232.218,98.972,98.972,232.218,98.972,396
			S232.218,693.028,396,693.028S693.028,559.782,693.028,396S559.782,98.972,396,98.972z"/>
	</g>
</g>
<g>
	<path fill="#F68D65" d="M204.313,510.202l90.739-263.054h89.842l90.919,263.054h-71.334l-13.297-47.076H289.304l-13.656,47.076
		H204.313z M304.756,411.916h71.334l-26.772-86.786c-0.602-1.556-1.738-5.868-3.414-12.937c-2.038-8.266-3.895-15.75-5.57-22.46
		c-1.679,6.109-3.116,12.28-4.313,18.507c-1.917,5.991-3.534,11.62-4.852,16.89L304.756,411.916z"/>
	<path fill="#F68D65" d="M495.039,510.202V328.724h63.967v181.479H495.039z M503.125,282.006h0.359
		c0-6.708,2.336-12.219,7.008-16.531c4.671-4.672,10.301-7.008,16.89-7.008c6.946,0,12.668,2.218,17.159,6.648
		c4.492,4.433,6.738,10.062,6.738,16.89c0,6.948-2.336,12.698-7.008,17.249c-4.554,4.672-10.183,7.008-16.89,7.008
		c-6.828,0-12.578-2.454-17.249-7.367C505.461,294.345,503.125,288.716,503.125,282.006z"/>
</g>
</svg>
