<?xml version="1.0" encoding="utf-8"?>
<!-- Generator: Adobe Illustrator 16.0.0, SVG Export Plug-In . SVG Version: 6.00 Build 0)  -->
<!DOCTYPE svg PUBLIC "-//W3C//DTD SVG 1.1//EN" "http://www.w3.org/Graphics/SVG/1.1/DTD/svg11.dtd">
<svg version="1.1" id="Layer_1" xmlns="http://www.w3.org/2000/svg" xmlns:xlink="http://www.w3.org/1999/xlink" x="0px" y="0px"
	 width="792px" height="792px" viewBox="0 0 792 792" enable-background="new 0 0 792 792" xml:space="preserve">
<g>
	<g>
		<path fill="#FEDE63" d="M710.529,396c0,173.705-140.824,314.528-314.529,314.528C222.294,710.528,81.471,569.705,81.471,396
			C81.471,222.296,222.294,81.472,396,81.472C569.705,81.472,710.529,222.296,710.529,396z"/>
		<path fill="#F68D65" d="M396,728.028c-88.686,0-172.065-34.537-234.778-97.25S63.971,484.686,63.971,396
			s34.538-172.064,97.25-234.777C223.934,98.509,307.313,63.972,396,63.972c88.686,0,172.065,34.537,234.778,97.251
			c62.713,62.713,97.251,146.092,97.251,234.777s-34.538,172.065-97.251,234.778S484.685,728.028,396,728.028z M396,98.972
			C232.217,98.972,98.971,232.218,98.971,396S232.217,693.028,396,693.028S693.029,559.782,693.029,396S559.782,98.972,396,98.972z"
			/>
	</g>
</g>
<g>
	<path fill="#F68D65" d="M238.329,510.202V247.148h72.411v263.054H238.329z"/>
	<path fill="#F68D65" d="M559.6,231.695v278.507h-58.936v-29.468c-8.147,12.339-17.37,21.444-27.671,27.312
		c-9.585,6.109-20.844,9.164-33.78,9.164c-25.397,0-45.671-8.863-60.822-26.593c-15.155-17.728-22.73-41.386-22.73-70.975
		c0-28.749,7.605-52.167,22.82-70.256c15.093-17.609,34.616-26.413,58.576-26.413c15.332,0,27.789,2.827,37.373,8.476
		c9.224,5.169,17.848,14.363,25.875,27.587c-0.48-3.237-0.961-8.153-1.438-14.747c-0.48-7.193-0.719-13.07-0.719-17.627v-94.967
		H559.6z M502.821,419.732c0-14.226-3.656-25.344-10.961-33.356c-7.788-8.128-18.089-12.192-30.905-12.192
		c-12.938,0-23.12,4.064-30.546,12.195c-7.429,8.131-11.141,19.248-11.141,33.354c0,14.229,3.712,25.405,11.141,33.533
		c7.305,8.013,17.488,12.016,30.546,12.016c12.938,0,23.238-4.003,30.905-12.016C499.165,445.259,502.821,434.079,502.821,419.732z"
		/>
</g>
</svg>
