<?xml version="1.0" encoding="utf-8"?>
<!-- Generator: Adobe Illustrator 16.0.0, SVG Export Plug-In . SVG Version: 6.00 Build 0)  -->
<!DOCTYPE svg PUBLIC "-//W3C//DTD SVG 1.1//EN" "http://www.w3.org/Graphics/SVG/1.1/DTD/svg11.dtd">
<svg version="1.1" id="Layer_1" xmlns="http://www.w3.org/2000/svg" xmlns:xlink="http://www.w3.org/1999/xlink" x="0px" y="0px"
	 width="600px" height="600px" viewBox="0 0 600 600" enable-background="new 0 0 600 600" xml:space="preserve">
<g>
	<path fill="#FFDE62" d="M293,536.345v-18.823C181,513.951,85.823,422,82.031,307H63.27C67.021,433,169,532.771,293,536.345z"/>
</g>
<g>
	<path fill="#FFDE62" d="M305.363,63.029v18.824c115.23,3.57,207.908,96.408,211.699,211.639h18.762
		C532.074,167.541,431.313,66.604,305.363,63.029z"/>
</g>
<path fill="#FFDE62" d="M479.744,313.16c-1.178-0.711-2.522-1.086-3.893-1.086c-2.62,0-5.091,1.395-6.443,3.635
	c-2.075,3.43-5.65,5.48-9.568,5.48c-1.15,0-2.295-0.184-3.405-0.544c-4.913-1.594-8.037-6.37-7.595-11.619
	c0.166-1.998-0.447-3.939-1.727-5.475c-1.288-1.544-3.109-2.49-5.125-2.66c-4.174-0.337-7.719,2.735-8.064,6.88
	c-0.752,8.92,3.051,17.477,10.029,22.913c-18.703,64.246-77.913,109.023-144.831,109.2
	c-67.075-0.177-126.385-44.959-145.091-109.206c6.905-5.401,10.66-13.951,9.909-22.907c-0.331-3.94-3.555-6.903-7.5-6.903
	c-0.209,0-0.418,0.008-0.634,0.023c-2.004,0.17-3.823,1.113-5.123,2.646c-1.298,1.534-1.921,3.485-1.751,5.488
	c0.439,5.244-2.689,10.025-7.61,11.619c-1.11,0.36-2.258,0.544-3.41,0.544c-3.919,0-7.497-2.041-9.572-5.475
	c-1.354-2.246-3.826-3.63-6.447-3.63c-1.371,0-2.717,0.387-3.893,1.098c-3.554,2.149-4.697,6.806-2.55,10.362
	c4.665,7.716,12.65,12.472,21.504,12.787c9.781,33.092,29.817,62.447,56.634,83.922C223.429,444.162,260.902,457,299.106,457h0.017
	c38.047,0,75.433-12.838,105.273-36.746c26.621-21.324,46.573-51.094,56.391-84.338c8.854-0.314,16.842-4.861,21.506-12.58
	C484.439,319.783,483.296,315.307,479.744,313.16z"/>
<g>
	<g>
		<path fill="#FF8E62" d="M263.729,260.51v-0.074v-69.934c0-0.055,0-0.102,0-0.154c0-0.055-0.026-0.102-0.027-0.154
			c-0.083-1.576-1.38-2.83-2.976-2.83c-0.978,0-1.854,0.477-2.398,1.209l-0.15,0.165l-35.986,49.558l-35.993-49.558l-0.158-0.165
			c-0.543-0.733-1.42-1.209-2.398-1.209c-1.596,0-2.896,1.254-2.977,2.83c-0.002,0.052-0.02,0.099-0.02,0.154
			c0,0.052,0.007,0.1,0.011,0.154v69.934v0.074c-0.009,0.138-0.021,0.269-0.021,0.406c0,0.13,0.012,0.266,0.021,0.4v0.073
			c0,4.066,3.213,7.638,7.267,8.136c0.397,0.048,2.046,0.048,2.442,0c4.124-0.498,7.102-4.182,7.102-8.349v-0.528v-28.114
			c0,0,16.826,25.251,23.199,33.094c0.275,0.337,0.784,0.832,1.525,0.832c0.992,0,1.251-0.495,1.526-0.832
			c6.375-7.843,23.199-33.094,23.199-33.094v28.114v0.528c0,4.167,2.975,7.851,7.098,8.349c0.396,0.048,2.04,0.048,2.437,0
			c4.056-0.498,7.279-4.069,7.279-8.136v-0.073c0-0.134,0.018-0.27,0.018-0.4C263.747,260.778,263.729,260.648,263.729,260.51z"/>
		<path fill="#FF8E62" d="M197.641,261.176c0.002-0.087,0.013-0.174,0.013-0.26c0-0.095-0.011-0.184-0.013-0.268V261.176z"/>
	</g>
</g>
<path fill="#FF8E62" d="M420.17,258.557l-31.592-68.013c-1.026-1.934-3.034-3.256-5.368-3.269v-0.002
	c-2.34,0.013-4.351,1.337-5.377,3.271l-31.592,68.013c-0.313,0.874-0.494,1.814-0.494,2.794c0,1.675,0.502,3.233,1.355,4.536
	c1.483,2.266,4.037,3.764,6.944,3.764c2.909,0,5.413-1.534,6.946-3.764c0.969-1.406,5.434-12.687,5.434-12.687h33.558
	c0,0,4.465,11.281,5.43,12.687c1.537,2.229,4.039,3.764,6.949,3.764c2.906,0,5.464-1.498,6.944-3.764
	c0.854-1.303,1.354-2.86,1.354-4.536C420.662,260.371,420.482,259.431,420.17,258.557z M372.991,238.921l10.205-22.446
	l10.222,22.446H372.991z"/>
<g>
	<g>
		<path fill="#FF8E62" d="M524.146,331.572c-7.609-1.117-11.527-8.372-10.904-16.642c0.699-9.245,6.615-16.396,13.836-16.397
			c7.225-0.001,13.432,8.109,12.625,18.194c-0.33,4.133-2.223,8.79-4.461,11.177c-1.795-2.123-2.707-3.168-4.547-5.22
			c1.49-1.613,2.572-4.079,2.746-6.431c0.355-4.744-2.596-9.073-6.502-9.219c-3.547-0.131-7.08,3.15-7.504,8.686
			c-0.279,3.623,0.906,6.335,3.299,6.703c0.293-2.768,0.414-4.159,0.623-6.95c1.998,0.15,2.998,0.228,4.996,0.378
			c-0.477,6.396-0.828,9.565-1.73,15.833C525.762,331.713,524.941,331.688,524.146,331.572z"/>
		<path fill="#FF8E62" d="M508.626,348.542c4.981-1.947,7.466-3.009,12.409-5.3c-4.311-0.867-6.463-1.299-10.773-2.166
			c0.598-2.984,0.869-4.487,1.362-7.508c9.993,1.631,14.989,2.443,24.983,4.07c-0.787,4.827-1.24,7.22-2.264,11.963
			c-1.455,6.741-6.334,10.504-10.717,9.326c-3.049-0.818-5.01-3.682-5.416-6.79c-4.705,2.144-7.066,3.134-11.803,4.955
			C507.364,353.699,507.807,351.99,508.626,348.542z M524.186,343.836c-0.266,1.3-0.406,1.95-0.691,3.243
			c-0.375,1.678,0.252,3.429,1.768,3.778c1.529,0.354,2.842-1.007,3.209-2.705c0.283-1.323,0.422-1.988,0.688-3.318
			C527.17,344.434,526.176,344.236,524.186,343.836z"/>
		<path fill="#FF8E62" d="M502.569,377.845c1.543-3.96,2.272-5.959,3.625-10.009c-0.937-0.926-1.408-1.387-2.353-2.3
			c1.018-3.115,1.494-4.685,2.396-7.851c8.418,7.88,12.475,12.091,20.199,21.021c-0.527,1.497-0.799,2.241-1.35,3.727
			c-11.646,1.921-17.456,2.551-28.94,3.17c1.314-2.977,1.948-4.48,3.153-7.515C500.606,378,501.262,377.949,502.569,377.845z
			 M508.029,377.338c2.667-0.271,4.004-0.421,6.676-0.759c-1.836-1.976-2.764-2.949-4.639-4.871
			C509.281,373.975,508.872,375.1,508.029,377.338z"/>
		<path fill="#FF8E62" d="M518.035,398.662c-1.963,4.289-2.998,6.406-5.16,10.578c-2.949,5.688-9.046,8.31-13.323,5.825
			c-4.222-2.452-5.312-8.669-2.532-14.029c0.595-1.147,0.888-1.729,1.467-2.887c-2.67-1.332-4.008-1.996-6.679-3.329
			c1.323-2.646,1.964-3.982,3.197-6.68C504.218,392.349,508.826,394.453,518.035,398.662z M503.269,408.366
			c1.354,0.728,3.109-0.076,4.097-1.979c0.627-1.208,0.938-1.814,1.547-3.033c-1.949-0.974-2.926-1.46-4.876-2.434
			c-0.601,1.188-0.907,1.779-1.524,2.957C501.526,405.744,501.899,407.63,503.269,408.366z"/>
		<path fill="#FF8E62" d="M491.112,443.719c-8.077-6.104-12.115-9.155-20.196-15.257c1.766-2.335,2.63-3.52,4.317-5.915
			c3.119,2.192,4.677,3.287,7.795,5.48c1.978-2.805,2.941-4.227,4.813-7.109c-3.2-2.072-4.802-3.105-8.002-5.179
			c1.602-2.466,2.384-3.718,3.901-6.242c8.683,5.212,13.024,7.818,21.703,13.031c-1.696,2.82-2.568,4.216-4.357,6.972
			c-3.189-2.066-4.785-3.099-7.975-5.165c-1.924,2.963-2.912,4.425-4.944,7.309c3.108,2.186,4.662,3.276,7.77,5.464
			C494.05,439.785,493.087,441.109,491.112,443.719z"/>
		<path fill="#FF8E62" d="M487.834,447.951c-2.034,2.569-3.071,3.836-5.189,6.333c-7.722-6.548-11.587-9.824-19.313-16.368
			c1.896-2.235,2.829-3.367,4.649-5.667C475.925,438.529,479.895,441.669,487.834,447.951z"/>
		<path fill="#FF8E62" d="M470.505,448.979c5.631,4.938,5.136,14.443-1.696,21.13c-2.831,2.771-6.979,4.662-10.867,4.995
			c0.051-2.718,0.055-4.07,0.023-6.761c2.301-0.218,4.715-1.249,6.29-2.81c3.287-3.254,3.762-8.108,0.936-10.765
			c-2.86-2.688-7.565-1.903-10.435,0.942c-1.687,1.671-2.52,3.859-2.871,6.188c-2.659-0.304-3.979-0.473-6.604-0.855
			c0.516-3.422,2.029-6.9,4.998-9.845C455.79,445.735,464.531,443.74,470.505,448.979z"/>
		<path fill="#FF8E62" d="M436.429,470.061c-0.414,2.377-0.637,3.57-1.126,5.96c-1.891-0.508-4.209,0.067-6.129,1.467
			c-1.294,0.943-2.274,2.277-1.677,3.124c0.752,1.063,3.834,0.307,6.754-0.522c3.757-1.068,7.571-1.432,9.942,1.558
			c2.723,3.432,0.697,9.053-4.063,12.496c-3.826,2.767-7.917,3.309-10.288,1.885c0.729-2.278,1.068-3.418,1.727-5.692
			c1.492,0.59,3.726-0.273,4.893-1.116c1.331-0.963,1.858-2.236,1.345-2.932c-0.691-0.935-2.615,0.037-5.884,0.942
			c-4.737,1.311-8.601,0.924-10.652-2.201c-2.645-4.03-0.185-9.219,4.284-12.479C429.221,469.877,433.575,468.766,436.429,470.061z"
			/>
		<path fill="#FF8E62" d="M406.604,506.995c2.576-1.334,3.854-2.02,6.382-3.429c-3.701-6.654-5.553-9.987-9.256-16.638
			c2.583-1.44,3.863-2.18,6.392-3.706c3.93,6.519,5.891,9.784,9.817,16.307c2.481-1.497,3.709-2.265,6.14-3.836
			c1.362,2.111,2.042,3.167,3.403,5.278c-7.751,5.01-11.76,7.341-19.997,11.605C408.332,510.345,407.757,509.228,406.604,506.995z"
			/>
		<path fill="#FF8E62" d="M399.399,499.628c2.882,5.766,4.318,8.652,7.199,14.417c-2.977,1.491-4.478,2.211-7.512,3.6
			c-2.677-5.856-4.02-8.786-6.697-14.642c-0.874-1.914-3.317-2.33-5.312-1.464c-1.977,0.86-3.374,2.984-2.584,4.9
			c2.451,5.955,3.677,8.934,6.127,14.888c-3.096,1.275-4.657,1.89-7.806,3.06c-2.244-6.043-3.363-9.066-5.609-15.108
			c-2.025-5.449,1.449-11.077,7.302-13.622C390.359,493.111,396.801,494.429,399.399,499.628z"/>
		<path fill="#FF8E62" d="M348.541,521.304c-1.707-7.664,3.109-13.487,12.326-16.249c3.538-1.06,5.291-1.63,8.765-2.835
			c3.322,9.558,4.98,14.342,8.3,23.903c-3.879,1.354-5.84,1.991-9.791,3.182C357.852,532.42,350.263,529.03,348.541,521.304z
			 M356.355,519.439c0.999,3.845,4.896,5.373,10.183,3.784c0.718-0.215,1.076-0.323,1.79-0.544
			c-1.503-4.855-2.257-7.286-3.76-12.141c-0.704,0.219-1.056,0.328-1.762,0.541C357.856,512.566,355.366,515.639,356.355,519.439z"
			/>
		<path fill="#FF8E62" d="M347.235,534.555c-3.331,0.679-5.008,0.988-8.379,1.552c-1.679-9.985-2.517-14.983-4.197-24.968
			c3.018-0.503,4.517-0.78,7.497-1.388C344.19,519.67,345.204,524.635,347.235,534.555z"/>
		<path fill="#FF8E62" d="M332.823,524.214c1.129,7.516-5.619,14.44-15.789,15.194c-10.169,0.754-18.139-5.09-18.138-12.689
			c0.002-7.536,7.092-13.195,16.16-13.869C324.104,512.178,331.702,516.76,332.823,524.214z M307.324,526.614
			c0.144,3.906,4.172,6.798,9.231,6.423c5.059-0.376,8.546-3.826,8.104-7.71c-0.439-3.871-4.379-6.424-9.141-6.07
			S307.181,522.722,307.324,526.614z"/>
	</g>
</g>
<g>
	<g>
		<path fill="#FF8E62" d="M75.848,268.428c7.611,1.114,11.529,8.372,10.905,16.643c-0.697,9.246-6.613,16.396-13.834,16.397
			c-7.221,0.001-13.429-8.111-12.621-18.195c0.331-4.135,2.222-8.789,4.461-11.175c1.795,2.122,2.703,3.167,4.544,5.219
			c-1.492,1.613-2.568,4.079-2.744,6.431c-0.353,4.743,2.592,9.073,6.499,9.219c3.545,0.132,7.08-3.149,7.506-8.686
			c0.278-3.622-0.908-6.333-3.299-6.703c-0.292,2.768-0.416,4.157-0.624,6.949c-1.998-0.15-2.999-0.225-4.996-0.375
			c0.476-6.396,0.825-9.565,1.729-15.833C74.234,268.289,75.055,268.312,75.848,268.428z"/>
		<path fill="#FF8E62" d="M91.372,251.461c-4.982,1.947-7.468,3.004-12.41,5.295c4.31,0.867,6.464,1.303,10.775,2.17
			c-0.597,2.984-0.871,4.486-1.364,7.506c-9.994-1.631-14.988-2.446-24.981-4.074c0.788-4.827,1.241-7.219,2.265-11.962
			c1.456-6.743,6.335-10.503,10.718-9.325c3.048,0.819,5.004,3.681,5.411,6.79c4.705-2.142,7.066-3.131,11.802-4.952
			C92.633,246.304,92.191,248.013,91.372,251.461z M75.812,256.164c0.266-1.299,0.406-1.95,0.69-3.242
			c0.377-1.679-0.251-3.429-1.766-3.779c-1.53-0.354-2.843,1.004-3.209,2.705c-0.285,1.323-0.422,1.985-0.688,3.314
			C72.829,255.562,73.823,255.764,75.812,256.164z"/>
		<path fill="#FF8E62" d="M97.428,222.153c-1.543,3.96-2.268,5.965-3.621,10.016c0.936,0.926,1.405,1.385,2.349,2.298
			c-1.018,3.115-1.498,4.688-2.399,7.854c-8.417-7.879-12.472-12.094-20.195-21.023c0.527-1.497,0.798-2.243,1.349-3.728
			c11.647-1.922,17.452-2.546,28.937-3.166c-1.315,2.976-1.945,4.479-3.15,7.513C99.391,222.005,98.736,222.049,97.428,222.153z
			 M91.969,222.664c-2.666,0.27-4.003,0.422-6.677,0.758c1.837,1.976,2.764,2.95,4.639,4.872
			C90.716,226.028,91.125,224.902,91.969,222.664z"/>
		<path fill="#FF8E62" d="M81.963,201.339c1.963-4.288,2.994-6.404,5.158-10.576c2.948-5.687,9.049-8.308,13.326-5.824
			c4.223,2.453,5.313,8.669,2.534,14.028c-0.595,1.148-0.889,1.724-1.468,2.882c2.67,1.332,4.005,1.999,6.675,3.332
			c-1.323,2.646-1.963,3.984-3.198,6.681C95.779,207.653,91.173,205.547,81.963,201.339z M96.732,191.636
			c-1.355-0.729-3.114,0.076-4.1,1.978c-0.627,1.208-0.935,1.815-1.544,3.033c1.95,0.973,2.924,1.459,4.875,2.433
			c0.601-1.187,0.906-1.781,1.523-2.958C98.472,194.255,98.102,192.373,96.732,191.636z"/>
		<path fill="#FF8E62" d="M108.884,156.286c8.077,6.103,12.117,9.155,20.198,15.256c-1.766,2.334-2.628,3.517-4.316,5.912
			c-3.12-2.193-4.679-3.291-7.798-5.484c-1.976,2.805-2.938,4.229-4.809,7.111c3.2,2.072,4.801,3.109,8.001,5.181
			c-1.601,2.467-2.383,3.716-3.901,6.24c-8.683-5.212-13.023-7.817-21.703-13.029c1.697-2.82,2.568-4.214,4.357-6.971
			c3.188,2.065,4.785,3.1,7.975,5.165c1.923-2.964,2.912-4.428,4.944-7.312c-3.108-2.187-4.665-3.277-7.772-5.463
			C105.946,160.216,106.911,158.895,108.884,156.286z"/>
		<path fill="#FF8E62" d="M112.162,152.05c2.034-2.569,3.074-3.836,5.192-6.333c7.722,6.547,11.583,9.821,19.308,16.365
			c-1.896,2.234-2.825,3.368-4.646,5.667C124.074,161.47,120.102,158.331,112.162,152.05z"/>
		<path fill="#FF8E62" d="M129.493,151.022c-5.632-4.938-5.137-14.438,1.697-21.128c2.832-2.772,6.978-4.663,10.865-4.996
			c-0.051,2.717-0.053,4.068-0.022,6.759c-2.299,0.219-4.709,1.249-6.287,2.811c-3.287,3.255-3.759,8.108-0.933,10.765
			c2.861,2.688,7.563,1.899,10.432-0.946c1.684-1.669,2.518-3.859,2.867-6.188c2.661,0.305,3.982,0.477,6.607,0.859
			c-0.514,3.423-2.028,6.9-4.997,9.843C144.212,154.266,135.467,156.259,129.493,151.022z"/>
		<path fill="#FF8E62" d="M163.572,129.94c0.413-2.377,0.638-3.569,1.126-5.958c1.892,0.505,4.208-0.071,6.129-1.472
			c1.294-0.944,2.273-2.271,1.675-3.118c-0.752-1.065-3.833-0.309-6.753,0.521c-3.757,1.069-7.57,1.43-9.941-1.56
			c-2.722-3.433-0.696-9.056,4.062-12.498c3.826-2.767,7.923-3.304,10.292-1.881c-0.728,2.278-1.076,3.416-1.733,5.69
			c-1.491-0.591-3.722,0.27-4.889,1.114c-1.334,0.964-1.86,2.238-1.346,2.932c0.691,0.935,2.611-0.035,5.882-0.94
			c4.737-1.312,8.603-0.925,10.653,2.2c2.645,4.031,0.184,9.219-4.283,12.477C170.779,130.121,166.423,131.234,163.572,129.94z"/>
		<path fill="#FF8E62" d="M193.396,93.006c-2.576,1.333-3.853,2.021-6.382,3.431c3.702,6.654,5.552,9.981,9.256,16.631
			c-2.583,1.44-3.861,2.182-6.389,3.708c-3.929-6.518-5.893-9.781-9.819-16.304c-2.481,1.498-3.709,2.266-6.141,3.837
			c-1.361-2.112-2.043-3.168-3.404-5.279c7.751-5.011,11.76-7.339,19.998-11.604C191.667,89.658,192.243,90.773,193.396,93.006z"/>
		<path fill="#FF8E62" d="M200.604,100.37c-2.881-5.766-4.322-8.649-7.203-14.415c2.978-1.491,4.48-2.211,7.515-3.601
			c2.676,5.856,4.016,8.785,6.694,14.641c0.875,1.914,3.316,2.331,5.309,1.464c1.976-0.859,3.376-2.98,2.587-4.898
			c-2.452-5.955-3.676-8.935-6.127-14.89c3.096-1.276,4.656-1.886,7.805-3.056c2.245,6.042,3.367,9.063,5.612,15.106
			c2.024,5.447-1.45,11.079-7.302,13.624C209.641,106.89,203.201,105.567,200.604,100.37z"/>
		<path fill="#FF8E62" d="M251.453,78.698c1.708,7.665-3.104,13.486-12.319,16.248c-3.539,1.061-5.292,1.627-8.766,2.833
			c-3.321-9.558-4.98-14.341-8.3-23.901c3.879-1.353,5.836-1.99,9.789-3.181C242.146,67.58,249.731,70.972,251.453,78.698z
			 M243.644,80.562c-1-3.845-4.895-5.377-10.183-3.788c-0.718,0.216-1.076,0.325-1.792,0.546c1.503,4.856,2.255,7.284,3.759,12.139
			c0.704-0.218,1.058-0.327,1.765-0.539C242.144,87.434,244.633,84.363,243.644,80.562z"/>
		<path fill="#FF8E62" d="M252.765,65.448c3.331-0.679,5.006-0.99,8.377-1.553c1.679,9.986,2.518,14.978,4.199,24.961
			c-3.017,0.504-4.517,0.782-7.498,1.39C255.811,80.329,254.796,75.369,252.765,65.448z"/>
		<path fill="#FF8E62" d="M267.174,75.788c-1.13-7.516,5.619-14.441,15.788-15.196c10.17-0.755,18.139,5.091,18.138,12.69
			c0,7.537-7.089,13.193-16.157,13.867C275.896,87.821,268.294,83.242,267.174,75.788z M292.677,73.388
			c-0.145-3.907-4.176-6.799-9.235-6.424c-5.059,0.376-8.544,3.824-8.103,7.71c0.439,3.869,4.377,6.423,9.139,6.069
			C289.241,80.39,292.82,77.279,292.677,73.388z"/>
	</g>
</g>
<line fill="none" x1="386.179" y1="492.932" x2="397.301" y2="492.932"/>
</svg>
