<?xml version="1.0" encoding="utf-8"?>
<!-- Generator: Adobe Illustrator 16.0.0, SVG Export Plug-In . SVG Version: 6.00 Build 0)  -->
<!DOCTYPE svg PUBLIC "-//W3C//DTD SVG 1.1//EN" "http://www.w3.org/Graphics/SVG/1.1/DTD/svg11.dtd">
<svg version="1.1" id="Layer_1" xmlns="http://www.w3.org/2000/svg" xmlns:xlink="http://www.w3.org/1999/xlink" x="0px" y="0px"
	 width="792px" height="792px" viewBox="0 0 792 792" enable-background="new 0 0 792 792" xml:space="preserve">
<g>
	<circle fill="#FEDE63" stroke="#F68D65" stroke-width="25" stroke-miterlimit="10" cx="396" cy="396" r="278"/>
	<g>
		<path fill="#F68D65" d="M603.779,384.641c-1.351-0.814-2.897-1.252-4.473-1.252c-3.011,0-5.85,1.605-7.401,4.18
			c-2.385,3.941-6.492,6.291-10.99,6.291c-1.321,0-2.638-0.207-3.912-0.619c-5.648-1.836-9.236-7.32-8.729-13.352
			c0.194-2.295-0.508-4.525-1.983-6.285c-1.476-1.775-3.57-2.861-5.884-3.057c-4.799-0.391-8.871,3.139-9.266,7.902
			c-0.862,10.246,3.506,20.072,11.52,26.322c-21.482,73.803-89.501,125.242-166.372,125.443
			c-77.055-0.201-145.186-51.646-166.675-125.449c7.933-6.209,12.247-16.029,11.38-26.316c-0.379-4.527-4.084-7.926-8.617-7.926
			c-0.236,0-0.479,0.006-0.726,0.023c-2.302,0.195-4.392,1.275-5.884,3.039c-1.494,1.766-2.208,4.008-2.014,6.303
			c0.502,6.027-3.092,11.516-8.74,13.352c-1.275,0.412-2.596,0.619-3.919,0.619c-4.503,0-8.61-2.338-10.995-6.285
			c-1.558-2.58-4.396-4.174-7.407-4.174c-1.575,0-3.121,0.449-4.473,1.264c-4.085,2.467-5.394,7.82-2.928,11.904
			c5.358,8.865,14.53,14.328,24.705,14.689c11.231,38.02,34.248,72.803,65.057,97.473C309.337,536.191,352.385,552,396.271,552
			h0.018c43.709,0,86.656-15.809,120.934-43.27c30.578-24.498,53.501-59.234,64.778-97.42c10.17-0.365,19.347-5.846,24.705-14.721
			C609.174,392.518,607.858,387.107,603.779,384.641z"/>
		<g>
			<g>
				<path fill="#F68D65" d="M351.607,324.117v-0.088v-80.338c0-0.059,0-0.117,0-0.176s-0.029-0.117-0.036-0.178
					c-0.094-1.805-1.582-3.246-3.417-3.246c-1.122,0-2.131,0.543-2.756,1.389l-0.171,0.189l-41.337,56.934l-41.349-56.934
					l-0.183-0.189c-0.626-0.846-1.635-1.389-2.756-1.389c-1.836,0-3.323,1.441-3.417,3.246c-0.006,0.061-0.024,0.119-0.024,0.178
					s0.006,0.117,0.013,0.176v80.338v0.088c-0.013,0.16-0.023,0.313-0.023,0.467c0,0.152,0.011,0.307,0.023,0.461v0.082
					c0,4.674,3.694,8.775,8.345,9.348c0.46,0.053,2.355,0.053,2.81,0c4.733-0.572,8.156-4.805,8.156-9.596v-0.602v-32.295
					c0,0,19.328,29.006,26.652,38.02c0.313,0.383,0.897,0.955,1.753,0.955c1.133,0,1.435-0.572,1.753-0.955
					c7.317-9.014,26.646-38.02,26.646-38.02v32.295v0.602c0,4.791,3.417,9.023,8.157,9.596c0.454,0.053,2.343,0.053,2.797,0
					c4.656-0.572,8.363-4.674,8.363-9.348v-0.082c0-0.154,0.017-0.309,0.017-0.461C351.624,324.43,351.607,324.277,351.607,324.117z
					"/>
				<path fill="#F68D65" d="M275.686,324.879c0-0.096,0.018-0.195,0.018-0.295c0-0.107-0.018-0.213-0.018-0.307V324.879z"/>
			</g>
		</g>
		<path fill="#F68D65" d="M531.317,321.875l-36.29-78.135c-1.181-2.221-3.488-3.736-6.167-3.754l0,0
			c-2.686,0.012-5,1.533-6.174,3.754l-36.296,78.135c-0.354,1.002-0.567,2.084-0.567,3.209c0,1.924,0.579,3.713,1.559,5.211
			c1.705,2.604,4.639,4.322,7.979,4.322s6.221-1.76,7.979-4.322c1.108-1.615,6.244-14.576,6.244-14.576h38.544
			c0,0,5.129,12.961,6.239,14.576c1.765,2.563,4.639,4.322,7.984,4.322c3.335,0,6.273-1.719,7.974-4.322
			c0.985-1.498,1.558-3.287,1.558-5.211C531.884,323.959,531.678,322.877,531.317,321.875z M477.121,299.316l11.728-25.783v0.012
			v0.023l0.005-0.014l0.007,0.014v-0.023l0.006-0.012l11.721,25.783H477.121z"/>
	</g>
</g>
</svg>
