<?xml version="1.0" encoding="utf-8"?>
<!-- Generator: Adobe Illustrator 16.0.0, SVG Export Plug-In . SVG Version: 6.00 Build 0)  -->
<!DOCTYPE svg PUBLIC "-//W3C//DTD SVG 1.1//EN" "http://www.w3.org/Graphics/SVG/1.1/DTD/svg11.dtd">
<svg version="1.1" id="Layer_1" xmlns="http://www.w3.org/2000/svg" xmlns:xlink="http://www.w3.org/1999/xlink" x="0px" y="0px"
	 width="792px" height="792px" viewBox="0 0 792 792" enable-background="new 0 0 792 792" xml:space="preserve">
<g>
	<g>
		<path fill="#FEDE63" d="M710.528,396c0,173.705-140.823,314.528-314.528,314.528S81.472,569.705,81.472,396
			C81.472,222.295,222.295,81.472,396,81.472S710.528,222.295,710.528,396z"/>
		<path fill="#F68D65" d="M396,728.028c-88.686,0-172.065-34.537-234.778-97.25S63.972,484.686,63.972,396
			c0-88.686,34.537-172.065,97.25-234.778S307.314,63.972,396,63.972s172.065,34.538,234.778,97.25s97.25,146.092,97.25,234.778
			c0,88.686-34.537,172.065-97.25,234.778S484.686,728.028,396,728.028z M396,98.972C232.218,98.972,98.972,232.218,98.972,396
			S232.218,693.028,396,693.028S693.028,559.782,693.028,396S559.782,98.972,396,98.972z"/>
	</g>
</g>
<g>
	<path fill="#F68D65" d="M285.586,510.202h-67.381V247.148h75.025c29.146,0,49.837,1.438,62.071,4.312
		c11.978,3.117,21.98,8.027,30.008,14.734c9.582,8.026,16.948,17.968,22.101,29.827c5.148,12.1,7.727,25.577,7.727,40.428
		c0,15.812-2.578,29.588-7.727,41.327c-4.554,11.859-11.921,21.683-22.101,29.468c-7.309,5.75-16.113,9.883-26.414,12.398
		c-9.226,2.516-25.275,3.773-48.154,3.773h-12.219h-12.937V510.202z M285.586,365.558h13.655c17.008,0,29.047-2.454,36.116-7.367
		c6.828-4.551,10.242-12.516,10.242-23.898c0-10.899-3.324-18.715-9.973-23.448c-6.648-4.731-18.538-7.098-35.667-7.098h-14.374
		V365.558z"/>
	<path fill="#F68D65" d="M430.229,495.108l13.297-48.873c9.343,8.271,19.644,14.504,30.905,18.698
		c11.14,4.425,22.398,6.637,33.78,6.637c8.145,0,14.253-1.373,18.327-4.124c4.191-2.51,6.289-6.16,6.289-10.943
		c0-8.011-8.445-13.99-25.335-17.938c-5.871-1.314-10.304-2.451-13.297-3.408c-19.526-5.753-33.362-12.764-41.507-21.034
		c-8.866-8.51-13.296-19.538-13.296-33.081c0-17.497,6.648-31.579,19.944-42.248c12.816-10.545,30.726-15.82,53.725-15.82
		c11.141,0,23,1.325,35.577,3.97c10.54,2.167,22.82,6.376,36.835,12.631l-13.297,44.131c-8.624-5.874-17.311-10.248-26.054-13.125
		c-8.265-2.987-16.951-4.484-26.054-4.484c-7.429,0-12.999,1.137-16.71,3.409c-3.594,2.153-5.391,5.441-5.391,9.865
		c0,6.219,8.445,11.601,25.335,16.144c5.509,1.676,8.324,2.513,8.445,2.513c22.039,6.222,37.491,13.583,46.357,22.078
		c8.625,8.976,12.938,20.642,12.938,34.999c0,18.549-7.129,33.508-21.382,44.875c-14.616,11.486-33.483,17.23-56.601,17.23
		c-16.053,0-30.815-1.828-44.291-5.48C455.295,508.077,442.448,502.537,430.229,495.108z"/>
</g>
</svg>
