<?xml version="1.0" encoding="utf-8"?>
<!-- Generator: Adobe Illustrator 16.0.0, SVG Export Plug-In . SVG Version: 6.00 Build 0)  -->
<!DOCTYPE svg PUBLIC "-//W3C//DTD SVG 1.1//EN" "http://www.w3.org/Graphics/SVG/1.1/DTD/svg11.dtd">
<svg version="1.1" id="Layer_1" xmlns="http://www.w3.org/2000/svg" xmlns:xlink="http://www.w3.org/1999/xlink" x="0px" y="0px"
	 width="792px" height="792px" viewBox="0 0 792 792" enable-background="new 0 0 792 792" xml:space="preserve">
<g>
	<path fill="#FEDE63" d="M686,396c0,160.164-129.836,290-290,290S106,556.164,106,396c0-160.17,129.836-290,290-290
		S686,235.83,686,396z"/>
	<g>
		<g>
			<g>
				<path fill="#F68D65" d="M351.451,333.486v-0.087v-83.803c0-0.062,0-0.123,0-0.185s-0.031-0.124-0.037-0.185
					c-0.099-1.884-1.65-3.392-3.564-3.392c-1.17,0-2.223,0.572-2.875,1.446l-0.18,0.197l-43.12,59.393l-43.134-59.393l-0.19-0.197
					c-0.652-0.874-1.705-1.446-2.875-1.446c-1.915,0-3.466,1.508-3.564,3.392c-0.007,0.062-0.024,0.124-0.024,0.185
					s0.006,0.123,0.012,0.185v83.803v0.087c-0.012,0.172-0.024,0.326-0.024,0.492c0,0.154,0.013,0.32,0.024,0.48v0.086
					c0,4.87,3.854,9.148,8.705,9.752c0.48,0.049,2.457,0.049,2.932,0c4.938-0.604,8.508-5.012,8.508-10.011v-0.628V299.97
					c0,0,20.163,30.253,27.803,39.654c0.326,0.4,0.936,0.997,1.829,0.997c1.183,0,1.496-0.597,1.829-0.997
					c7.633-9.401,27.797-39.654,27.797-39.654v33.688v0.628c0,4.999,3.564,9.407,8.508,10.011c0.475,0.049,2.444,0.049,2.918,0
					c4.857-0.604,8.725-4.882,8.725-9.752v-0.086c0-0.16,0.018-0.327,0.018-0.48C351.469,333.813,351.451,333.658,351.451,333.486z"
					/>
				<path fill="#F68D65" d="M272.252,334.286c0-0.099,0.02-0.209,0.02-0.308c0-0.117-0.02-0.222-0.02-0.32V334.286z"/>
			</g>
		</g>
		<path fill="#F68D65" d="M538.919,331.146l-37.856-81.501c-1.232-2.315-3.639-3.903-6.434-3.916l0,0
			c-2.802,0.012-5.215,1.601-6.44,3.916l-37.862,81.501c-0.37,1.047-0.592,2.18-0.592,3.349c0,2.007,0.604,3.878,1.625,5.442
			c1.779,2.709,4.84,4.506,8.324,4.506s6.488-1.834,8.324-4.506c1.156-1.687,6.514-15.207,6.514-15.207h40.208
			c0,0,5.351,13.52,6.508,15.207c1.841,2.672,4.839,4.506,8.329,4.506c3.479,0,6.545-1.797,8.318-4.506
			c1.027-1.564,1.625-3.435,1.625-5.442C539.51,333.326,539.295,332.193,538.919,331.146z M482.383,307.616l12.233-26.893v0.013
			v0.024l0.006-0.019l0.007,0.019v-0.024l0.006-0.013l12.227,26.893H482.383z"/>
		<path fill="#F68D65" d="M580.463,528.705c-11.703-37.057-34.193-71.306-64.01-95.218c-34.119-27.311-76.778-44.562-120.275-44.931
			v-0.031c-0.061,0-0.116,0.019-0.178,0.019c-0.063,0-0.117-0.019-0.179-0.019v0.031c-43.497,0.369-86.155,17.62-120.275,44.931
			c-29.815,23.912-52.306,58.161-64.01,95.218c-0.283,0.893-1.09,3.922-1.09,4.581c0,5.83,4.71,10.527,10.528,10.527
			c4.088,0,7.59-2.339,9.333-5.744c0.313-1.028,0.696-2.013,1.022-3.028C254.263,463.63,320.754,414.119,396,413.367
			c75.246,0.752,141.736,50.263,164.67,121.674c0.326,1.016,0.708,2,1.021,3.028c1.743,3.405,5.246,5.744,9.334,5.744
			c5.818,0,10.527-4.697,10.527-10.527C581.553,532.627,580.746,529.598,580.463,528.705z"/>
	</g>
</g>
</svg>
